<svg width="60" height="61" viewBox="0 0 60 61" fill="none" xmlns="http://www.w3.org/2000/svg">
<g clip-path="url(#clip0_131_883)">
<path d="M1.95945 9.03344L50.9514 58.0254C51.6908 58.7684 52.6343 59.2748 53.6622 59.4803C54.69 59.6858 55.7558 59.5811 56.724 59.1795C57.6922 58.7779 58.5191 58.0975 59.0997 57.2248C59.6804 56.3521 59.9885 55.3265 59.9849 54.2783V7.75853C59.9849 5.69673 59.1658 3.71934 57.7079 2.26143C56.25 0.803515 54.2726 -0.0155029 52.2108 -0.0155029H5.7221C4.67723 -0.0117053 3.65673 0.300747 2.78886 0.882611C1.92098 1.46447 1.24441 2.28977 0.844067 3.25492C0.443724 4.22006 0.337474 5.28198 0.538685 6.30731C0.739896 7.33263 1.23961 8.27566 1.97501 9.01792" fill="#00C73D"></path>
<path d="M3.32716 56.9216C4.63764 58.2266 6.24949 59.1887 8.02019 59.7227C9.7909 60.2567 11.6659 60.3462 13.4794 59.9833C15.293 59.6204 16.9891 58.8162 18.4179 57.6419C19.8467 56.4676 20.9642 54.9593 21.6715 53.2504C22.3789 51.5416 22.6542 49.6847 22.4733 47.8441C22.2923 46.0035 21.6607 44.2359 20.6341 42.6974C19.6076 41.159 18.2178 39.8971 16.5877 39.0235C14.9575 38.1499 13.1372 37.6915 11.2878 37.6886C9.05793 37.6852 6.87729 38.3441 5.02246 39.5817C3.16763 40.8194 1.72218 42.58 0.869401 44.6404C0.0166226 46.7007 -0.205023 48.9679 0.232541 51.1543C0.670106 53.3408 1.74718 55.3481 3.32716 56.9216Z" fill="#00C73D"></path>
</g>
<defs>
<clipPath id="clip0_131_883">
<rect width="60" height="60.2332" fill="white"></rect>
</clipPath>
</defs>
</svg>