<svg width="280" height="48" viewBox="0 0 280 48" fill="none" xmlns="http://www.w3.org/2000/svg">
<g clip-path="url(#clip0_129_528)">
<path d="M62.0001 34.4076C52.8491 31.9373 52.7944 27.3199 52.8491 24.5232C52.9124 20.0347 58.3408 15.8726 64.7474 15.8726C70.8261 15.8726 77.2327 18.5376 77.2988 25.9545H68.7318C68.6685 23.6645 66.718 23.2866 65.2796 23.2866C63.3205 23.2866 62.0116 24.1969 62.0778 25.5766C62.1411 26.4869 62.9408 27.4001 64.7589 27.8667L69.9371 29.2321C77.3247 31.2359 78.2395 36.1281 78.2395 38.0775C78.2395 44.5182 71.4388 47.5726 65.0322 47.5726C58.8241 47.5726 52.3514 43.8656 52.2881 37.1013H60.7832C60.8494 38.8589 62.797 40.6137 65.294 40.6137C67.3078 40.5478 69.0338 39.6376 69.0338 38.0775C69.0338 36.775 68.2485 36.0737 66.0276 35.4754L62.0001 34.4076Z" fill="white"></path>
<path d="M92.2609 46.8974H83.2422V0H92.2609V24.8442L99.519 16.5198H111.089L98.4086 29.9195L113.635 46.8974H102.459L92.2609 34.8632V46.8974Z" fill="white"></path>
<path d="M137.144 43.4505C135.179 46.3789 130.608 47.481 128.255 47.481C120.459 47.481 112.691 41.4324 112.691 31.6768C112.691 21.9212 120.459 15.8726 128.252 15.8726C130.211 15.8726 134.788 16.5195 137.141 19.9059V16.5195H146.16V46.897H137.144V43.4505ZM129.756 38.899C133.496 38.899 137.144 36.2311 137.144 31.6768C137.144 27.1224 133.482 24.4545 129.756 24.4545C125.965 24.4545 122.107 27.3171 122.107 31.6768C122.107 36.0365 125.965 38.899 129.756 38.899Z" fill="white"></path>
<path d="M163.611 46.897H154.518V16.5195H163.611V20.945C165.242 17.8878 168.838 15.8726 172.434 15.8726C179.295 15.8726 183.613 20.0977 183.613 28.7541V46.8999H174.52V30.7006C174.52 26.6673 172.296 24.652 169.227 24.652C166.022 24.652 163.605 26.2121 163.605 30.8294L163.611 46.897Z" fill="white"></path>
<path d="M213.601 46.8972V43.1272C212.099 45.9239 208.437 47.547 204.645 47.547C196.8 47.547 189.873 41.3696 189.873 31.8029C189.873 22.0473 196.8 15.8698 204.645 15.8698C208.437 15.8698 212.099 17.4299 213.601 20.2267V-0.00878906H222.622V46.8972H213.601ZM206.345 24.3917C202.488 24.3917 199.283 27.2543 199.283 31.6139C199.283 36.1024 202.488 38.9621 206.345 38.9621C210.137 38.9621 213.405 35.9679 213.405 31.6139C213.405 27.0596 210.074 24.3917 206.345 24.3917Z" fill="white"></path>
<path d="M235.49 -0.00878906C238.56 -0.00878906 241.045 2.28126 241.045 5.25833C241.045 8.23539 238.56 10.5913 235.49 10.5913C232.421 10.5913 229.8 8.24684 229.8 5.25833C229.8 2.26981 232.418 -0.00878906 235.49 -0.00878906ZM239.998 46.8857H230.979V16.5196H239.998V46.8857Z" fill="white"></path>
<path d="M270.981 43.4505C269.019 46.3789 264.445 47.481 262.092 47.481C254.31 47.481 246.531 41.4324 246.531 31.6768C246.531 21.9212 254.299 15.8726 262.092 15.8726C264.051 15.8726 268.628 16.5195 270.981 19.9059V16.5195H280V46.897H270.981V43.4505ZM263.593 38.899C267.333 38.899 270.981 36.2311 270.981 31.6768C270.981 27.1224 267.319 24.4545 263.593 24.4545C259.802 24.4545 255.944 27.3171 255.944 31.6768C255.944 36.0365 259.802 38.899 263.593 38.899Z" fill="white"></path>
<path d="M1.21062 15.8641L31.3276 45.8323C31.7828 46.2844 32.3624 46.5921 32.9933 46.7166C33.6242 46.8411 34.2779 46.7767 34.8721 46.5317C35.4662 46.2866 35.974 45.8719 36.3313 45.3398C36.6887 44.8077 36.8796 44.1822 36.8798 43.5422V15.0855C36.8791 13.827 36.3763 12.6202 35.482 11.7303C34.5876 10.8404 33.3749 10.3401 32.1101 10.3394H3.51204C2.8689 10.3396 2.24027 10.5295 1.70555 10.8851C1.17083 11.2407 0.754015 11.746 0.507748 12.3372C0.261481 12.9284 0.196813 13.5789 0.321913 14.2067C0.447013 14.8344 0.756269 15.4112 1.21062 15.8641Z" fill="white"></path>
<path d="M2.04213 45.1511C6.40045 49.4908 13.8571 46.4193 13.8571 40.2848C13.8571 38.4582 13.1278 36.7063 11.8298 35.4147C10.5318 34.1231 8.77124 33.3975 6.93553 33.3975C0.767714 33.3975 -2.31907 40.8172 2.04501 45.154" fill="white"></path>
</g>
<defs>
<clipPath id="clip0_129_528">
<rect width="280" height="47.5472" fill="white"></rect>
</clipPath>
</defs>
</svg>