<svg xmlns="http://www.w3.org/2000/svg" width="444" height="444" viewBox="0 0 444 444" shape-rendering="crispEdges"><rect width="444" height="444" fill="#ffffff"></rect><rect x="48" y="48" width="12" height="12" fill="#232323"></rect><rect x="60" y="48" width="12" height="12" fill="#232323"></rect><rect x="72" y="48" width="12" height="12" fill="#232323"></rect><rect x="84" y="48" width="12" height="12" fill="#232323"></rect><rect x="96" y="48" width="12" height="12" fill="#232323"></rect><rect x="108" y="48" width="12" height="12" fill="#232323"></rect><rect x="120" y="48" width="12" height="12" fill="#232323"></rect><rect x="180" y="48" width="12" height="12" fill="#232323"></rect><rect x="192" y="48" width="12" height="12" fill="#232323"></rect><rect x="228" y="48" width="12" height="12" fill="#232323"></rect><rect x="240" y="48" width="12" height="12" fill="#232323"></rect><rect x="252" y="48" width="12" height="12" fill="#232323"></rect><rect x="288" y="48" width="12" height="12" fill="#232323"></rect><rect x="312" y="48" width="12" height="12" fill="#232323"></rect><rect x="324" y="48" width="12" height="12" fill="#232323"></rect><rect x="336" y="48" width="12" height="12" fill="#232323"></rect><rect x="348" y="48" width="12" height="12" fill="#232323"></rect><rect x="360" y="48" width="12" height="12" fill="#232323"></rect><rect x="372" y="48" width="12" height="12" fill="#232323"></rect><rect x="384" y="48" width="12" height="12" fill="#232323"></rect><rect x="48" y="60" width="12" height="12" fill="#232323"></rect><rect x="120" y="60" width="12" height="12" fill="#232323"></rect><rect x="144" y="60" width="12" height="12" fill="#232323"></rect><rect x="156" y="60" width="12" height="12" fill="#232323"></rect><rect x="168" y="60" width="12" height="12" fill="#232323"></rect><rect x="192" y="60" width="12" height="12" fill="#232323"></rect><rect x="204" y="60" width="12" height="12" fill="#232323"></rect><rect x="228" y="60" width="12" height="12" fill="#232323"></rect><rect x="312" y="60" width="12" height="12" fill="#232323"></rect><rect x="384" y="60" width="12" height="12" fill="#232323"></rect><rect x="48" y="72" width="12" height="12" fill="#232323"></rect><rect x="72" y="72" width="12" height="12" fill="#232323"></rect><rect x="84" y="72" width="12" height="12" fill="#232323"></rect><rect x="96" y="72" width="12" height="12" fill="#232323"></rect><rect x="120" y="72" width="12" height="12" fill="#232323"></rect><rect x="144" y="72" width="12" height="12" fill="#232323"></rect><rect x="156" y="72" width="12" height="12" fill="#232323"></rect><rect x="192" y="72" width="12" height="12" fill="#232323"></rect><rect x="204" y="72" width="12" height="12" fill="#232323"></rect><rect x="288" y="72" width="12" height="12" fill="#232323"></rect><rect x="312" y="72" width="12" height="12" fill="#232323"></rect><rect x="336" y="72" width="12" height="12" fill="#232323"></rect><rect x="348" y="72" width="12" height="12" fill="#232323"></rect><rect x="360" y="72" width="12" height="12" fill="#232323"></rect><rect x="384" y="72" width="12" height="12" fill="#232323"></rect><rect x="48" y="84" width="12" height="12" fill="#232323"></rect><rect x="72" y="84" width="12" height="12" fill="#232323"></rect><rect x="84" y="84" width="12" height="12" fill="#232323"></rect><rect x="96" y="84" width="12" height="12" fill="#232323"></rect><rect x="120" y="84" width="12" height="12" fill="#232323"></rect><rect x="144" y="84" width="12" height="12" fill="#232323"></rect><rect x="192" y="84" width="12" height="12" fill="#232323"></rect><rect x="216" y="84" width="12" height="12" fill="#232323"></rect><rect x="264" y="84" width="12" height="12" fill="#232323"></rect><rect x="276" y="84" width="12" height="12" fill="#232323"></rect><rect x="288" y="84" width="12" height="12" fill="#232323"></rect><rect x="312" y="84" width="12" height="12" fill="#232323"></rect><rect x="336" y="84" width="12" height="12" fill="#232323"></rect><rect x="348" y="84" width="12" height="12" fill="#232323"></rect><rect x="360" y="84" width="12" height="12" fill="#232323"></rect><rect x="384" y="84" width="12" height="12" fill="#232323"></rect><rect x="48" y="96" width="12" height="12" fill="#232323"></rect><rect x="72" y="96" width="12" height="12" fill="#232323"></rect><rect x="84" y="96" width="12" height="12" fill="#232323"></rect><rect x="96" y="96" width="12" height="12" fill="#232323"></rect><rect x="120" y="96" width="12" height="12" fill="#232323"></rect><rect x="144" y="96" width="12" height="12" fill="#232323"></rect><rect x="156" y="96" width="12" height="12" fill="#232323"></rect><rect x="168" y="96" width="12" height="12" fill="#232323"></rect><rect x="192" y="96" width="12" height="12" fill="#232323"></rect><rect x="204" y="96" width="12" height="12" fill="#232323"></rect><rect x="216" y="96" width="12" height="12" fill="#232323"></rect><rect x="228" y="96" width="12" height="12" fill="#232323"></rect><rect x="240" y="96" width="12" height="12" fill="#232323"></rect><rect x="252" y="96" width="12" height="12" fill="#232323"></rect><rect x="264" y="96" width="12" height="12" fill="#232323"></rect><rect x="276" y="96" width="12" height="12" fill="#232323"></rect><rect x="312" y="96" width="12" height="12" fill="#232323"></rect><rect x="336" y="96" width="12" height="12" fill="#232323"></rect><rect x="348" y="96" width="12" height="12" fill="#232323"></rect><rect x="360" y="96" width="12" height="12" fill="#232323"></rect><rect x="384" y="96" width="12" height="12" fill="#232323"></rect><rect x="48" y="108" width="12" height="12" fill="#232323"></rect><rect x="120" y="108" width="12" height="12" fill="#232323"></rect><rect x="144" y="108" width="12" height="12" fill="#232323"></rect><rect x="180" y="108" width="12" height="12" fill="#232323"></rect><rect x="204" y="108" width="12" height="12" fill="#232323"></rect><rect x="216" y="108" width="12" height="12" fill="#232323"></rect><rect x="240" y="108" width="12" height="12" fill="#232323"></rect><rect x="264" y="108" width="12" height="12" fill="#232323"></rect><rect x="312" y="108" width="12" height="12" fill="#232323"></rect><rect x="384" y="108" width="12" height="12" fill="#232323"></rect><rect x="48" y="120" width="12" height="12" fill="#232323"></rect><rect x="60" y="120" width="12" height="12" fill="#232323"></rect><rect x="72" y="120" width="12" height="12" fill="#232323"></rect><rect x="84" y="120" width="12" height="12" fill="#232323"></rect><rect x="96" y="120" width="12" height="12" fill="#232323"></rect><rect x="108" y="120" width="12" height="12" fill="#232323"></rect><rect x="120" y="120" width="12" height="12" fill="#232323"></rect><rect x="144" y="120" width="12" height="12" fill="#232323"></rect><rect x="168" y="120" width="12" height="12" fill="#232323"></rect><rect x="192" y="120" width="12" height="12" fill="#232323"></rect><rect x="216" y="120" width="12" height="12" fill="#232323"></rect><rect x="240" y="120" width="12" height="12" fill="#232323"></rect><rect x="264" y="120" width="12" height="12" fill="#232323"></rect><rect x="288" y="120" width="12" height="12" fill="#232323"></rect><rect x="312" y="120" width="12" height="12" fill="#232323"></rect><rect x="324" y="120" width="12" height="12" fill="#232323"></rect><rect x="336" y="120" width="12" height="12" fill="#232323"></rect><rect x="348" y="120" width="12" height="12" fill="#232323"></rect><rect x="360" y="120" width="12" height="12" fill="#232323"></rect><rect x="372" y="120" width="12" height="12" fill="#232323"></rect><rect x="384" y="120" width="12" height="12" fill="#232323"></rect><rect x="144" y="132" width="12" height="12" fill="#232323"></rect><rect x="180" y="132" width="12" height="12" fill="#232323"></rect><rect x="192" y="132" width="12" height="12" fill="#232323"></rect><rect x="228" y="132" width="12" height="12" fill="#232323"></rect><rect x="240" y="132" width="12" height="12" fill="#232323"></rect><rect x="276" y="132" width="12" height="12" fill="#232323"></rect><rect x="288" y="132" width="12" height="12" fill="#232323"></rect><rect x="120" y="144" width="12" height="12" fill="#232323"></rect><rect x="216" y="144" width="12" height="12" fill="#232323"></rect><rect x="252" y="144" width="12" height="12" fill="#232323"></rect><rect x="264" y="144" width="12" height="12" fill="#232323"></rect><rect x="300" y="144" width="12" height="12" fill="#232323"></rect><rect x="336" y="144" width="12" height="12" fill="#232323"></rect><rect x="360" y="144" width="12" height="12" fill="#232323"></rect><rect x="384" y="144" width="12" height="12" fill="#232323"></rect><rect x="48" y="156" width="12" height="12" fill="#232323"></rect><rect x="84" y="156" width="12" height="12" fill="#232323"></rect><rect x="96" y="156" width="12" height="12" fill="#232323"></rect><rect x="132" y="156" width="12" height="12" fill="#232323"></rect><rect x="144" y="156" width="12" height="12" fill="#232323"></rect><rect x="156" y="156" width="12" height="12" fill="#232323"></rect><rect x="168" y="156" width="12" height="12" fill="#232323"></rect><rect x="204" y="156" width="12" height="12" fill="#232323"></rect><rect x="240" y="156" width="12" height="12" fill="#232323"></rect><rect x="288" y="156" width="12" height="12" fill="#232323"></rect><rect x="348" y="156" width="12" height="12" fill="#232323"></rect><rect x="360" y="156" width="12" height="12" fill="#232323"></rect><rect x="60" y="168" width="12" height="12" fill="#232323"></rect><rect x="72" y="168" width="12" height="12" fill="#232323"></rect><rect x="108" y="168" width="12" height="12" fill="#232323"></rect><rect x="120" y="168" width="12" height="12" fill="#232323"></rect><rect x="132" y="168" width="12" height="12" fill="#232323"></rect><rect x="168" y="168" width="12" height="12" fill="#232323"></rect><rect x="180" y="168" width="12" height="12" fill="#232323"></rect><rect x="288" y="168" width="12" height="12" fill="#232323"></rect><rect x="336" y="168" width="12" height="12" fill="#232323"></rect><rect x="60" y="180" width="12" height="12" fill="#232323"></rect><rect x="72" y="180" width="12" height="12" fill="#232323"></rect><rect x="96" y="180" width="12" height="12" fill="#232323"></rect><rect x="132" y="180" width="12" height="12" fill="#232323"></rect><rect x="144" y="180" width="12" height="12" fill="#232323"></rect><rect x="168" y="180" width="12" height="12" fill="#232323"></rect><rect x="180" y="180" width="12" height="12" fill="#232323"></rect><rect x="216" y="180" width="12" height="12" fill="#232323"></rect><rect x="228" y="180" width="12" height="12" fill="#232323"></rect><rect x="264" y="180" width="12" height="12" fill="#232323"></rect><rect x="276" y="180" width="12" height="12" fill="#232323"></rect><rect x="288" y="180" width="12" height="12" fill="#232323"></rect><rect x="312" y="180" width="12" height="12" fill="#232323"></rect><rect x="348" y="180" width="12" height="12" fill="#232323"></rect><rect x="360" y="180" width="12" height="12" fill="#232323"></rect><rect x="372" y="180" width="12" height="12" fill="#232323"></rect><rect x="48" y="192" width="12" height="12" fill="#232323"></rect><rect x="60" y="192" width="12" height="12" fill="#232323"></rect><rect x="72" y="192" width="12" height="12" fill="#232323"></rect><rect x="84" y="192" width="12" height="12" fill="#232323"></rect><rect x="120" y="192" width="12" height="12" fill="#232323"></rect><rect x="156" y="192" width="12" height="12" fill="#232323"></rect><rect x="168" y="192" width="12" height="12" fill="#232323"></rect><rect x="180" y="192" width="12" height="12" fill="#232323"></rect><rect x="192" y="192" width="12" height="12" fill="#232323"></rect><rect x="204" y="192" width="12" height="12" fill="#232323"></rect><rect x="216" y="192" width="12" height="12" fill="#232323"></rect><rect x="264" y="192" width="12" height="12" fill="#232323"></rect><rect x="276" y="192" width="12" height="12" fill="#232323"></rect><rect x="288" y="192" width="12" height="12" fill="#232323"></rect><rect x="300" y="192" width="12" height="12" fill="#232323"></rect><rect x="312" y="192" width="12" height="12" fill="#232323"></rect><rect x="324" y="192" width="12" height="12" fill="#232323"></rect><rect x="336" y="192" width="12" height="12" fill="#232323"></rect><rect x="60" y="204" width="12" height="12" fill="#232323"></rect><rect x="96" y="204" width="12" height="12" fill="#232323"></rect><rect x="144" y="204" width="12" height="12" fill="#232323"></rect><rect x="228" y="204" width="12" height="12" fill="#232323"></rect><rect x="240" y="204" width="12" height="12" fill="#232323"></rect><rect x="264" y="204" width="12" height="12" fill="#232323"></rect><rect x="288" y="204" width="12" height="12" fill="#232323"></rect><rect x="324" y="204" width="12" height="12" fill="#232323"></rect><rect x="336" y="204" width="12" height="12" fill="#232323"></rect><rect x="348" y="204" width="12" height="12" fill="#232323"></rect><rect x="360" y="204" width="12" height="12" fill="#232323"></rect><rect x="384" y="204" width="12" height="12" fill="#232323"></rect><rect x="48" y="216" width="12" height="12" fill="#232323"></rect><rect x="72" y="216" width="12" height="12" fill="#232323"></rect><rect x="96" y="216" width="12" height="12" fill="#232323"></rect><rect x="120" y="216" width="12" height="12" fill="#232323"></rect><rect x="156" y="216" width="12" height="12" fill="#232323"></rect><rect x="180" y="216" width="12" height="12" fill="#232323"></rect><rect x="192" y="216" width="12" height="12" fill="#232323"></rect><rect x="204" y="216" width="12" height="12" fill="#232323"></rect><rect x="240" y="216" width="12" height="12" fill="#232323"></rect><rect x="264" y="216" width="12" height="12" fill="#232323"></rect><rect x="336" y="216" width="12" height="12" fill="#232323"></rect><rect x="372" y="216" width="12" height="12" fill="#232323"></rect><rect x="384" y="216" width="12" height="12" fill="#232323"></rect><rect x="84" y="228" width="12" height="12" fill="#232323"></rect><rect x="96" y="228" width="12" height="12" fill="#232323"></rect><rect x="156" y="228" width="12" height="12" fill="#232323"></rect><rect x="204" y="228" width="12" height="12" fill="#232323"></rect><rect x="216" y="228" width="12" height="12" fill="#232323"></rect><rect x="228" y="228" width="12" height="12" fill="#232323"></rect><rect x="240" y="228" width="12" height="12" fill="#232323"></rect><rect x="252" y="228" width="12" height="12" fill="#232323"></rect><rect x="264" y="228" width="12" height="12" fill="#232323"></rect><rect x="276" y="228" width="12" height="12" fill="#232323"></rect><rect x="300" y="228" width="12" height="12" fill="#232323"></rect><rect x="312" y="228" width="12" height="12" fill="#232323"></rect><rect x="324" y="228" width="12" height="12" fill="#232323"></rect><rect x="348" y="228" width="12" height="12" fill="#232323"></rect><rect x="360" y="228" width="12" height="12" fill="#232323"></rect><rect x="48" y="240" width="12" height="12" fill="#232323"></rect><rect x="72" y="240" width="12" height="12" fill="#232323"></rect><rect x="84" y="240" width="12" height="12" fill="#232323"></rect><rect x="108" y="240" width="12" height="12" fill="#232323"></rect><rect x="120" y="240" width="12" height="12" fill="#232323"></rect><rect x="132" y="240" width="12" height="12" fill="#232323"></rect><rect x="192" y="240" width="12" height="12" fill="#232323"></rect><rect x="204" y="240" width="12" height="12" fill="#232323"></rect><rect x="216" y="240" width="12" height="12" fill="#232323"></rect><rect x="240" y="240" width="12" height="12" fill="#232323"></rect><rect x="252" y="240" width="12" height="12" fill="#232323"></rect><rect x="276" y="240" width="12" height="12" fill="#232323"></rect><rect x="288" y="240" width="12" height="12" fill="#232323"></rect><rect x="312" y="240" width="12" height="12" fill="#232323"></rect><rect x="348" y="240" width="12" height="12" fill="#232323"></rect><rect x="372" y="240" width="12" height="12" fill="#232323"></rect><rect x="60" y="252" width="12" height="12" fill="#232323"></rect><rect x="96" y="252" width="12" height="12" fill="#232323"></rect><rect x="108" y="252" width="12" height="12" fill="#232323"></rect><rect x="132" y="252" width="12" height="12" fill="#232323"></rect><rect x="144" y="252" width="12" height="12" fill="#232323"></rect><rect x="156" y="252" width="12" height="12" fill="#232323"></rect><rect x="228" y="252" width="12" height="12" fill="#232323"></rect><rect x="264" y="252" width="12" height="12" fill="#232323"></rect><rect x="288" y="252" width="12" height="12" fill="#232323"></rect><rect x="312" y="252" width="12" height="12" fill="#232323"></rect><rect x="324" y="252" width="12" height="12" fill="#232323"></rect><rect x="348" y="252" width="12" height="12" fill="#232323"></rect><rect x="48" y="264" width="12" height="12" fill="#232323"></rect><rect x="72" y="264" width="12" height="12" fill="#232323"></rect><rect x="84" y="264" width="12" height="12" fill="#232323"></rect><rect x="120" y="264" width="12" height="12" fill="#232323"></rect><rect x="156" y="264" width="12" height="12" fill="#232323"></rect><rect x="192" y="264" width="12" height="12" fill="#232323"></rect><rect x="204" y="264" width="12" height="12" fill="#232323"></rect><rect x="216" y="264" width="12" height="12" fill="#232323"></rect><rect x="228" y="264" width="12" height="12" fill="#232323"></rect><rect x="240" y="264" width="12" height="12" fill="#232323"></rect><rect x="252" y="264" width="12" height="12" fill="#232323"></rect><rect x="264" y="264" width="12" height="12" fill="#232323"></rect><rect x="300" y="264" width="12" height="12" fill="#232323"></rect><rect x="324" y="264" width="12" height="12" fill="#232323"></rect><rect x="336" y="264" width="12" height="12" fill="#232323"></rect><rect x="384" y="264" width="12" height="12" fill="#232323"></rect><rect x="48" y="276" width="12" height="12" fill="#232323"></rect><rect x="60" y="276" width="12" height="12" fill="#232323"></rect><rect x="72" y="276" width="12" height="12" fill="#232323"></rect><rect x="132" y="276" width="12" height="12" fill="#232323"></rect><rect x="144" y="276" width="12" height="12" fill="#232323"></rect><rect x="156" y="276" width="12" height="12" fill="#232323"></rect><rect x="168" y="276" width="12" height="12" fill="#232323"></rect><rect x="204" y="276" width="12" height="12" fill="#232323"></rect><rect x="252" y="276" width="12" height="12" fill="#232323"></rect><rect x="264" y="276" width="12" height="12" fill="#232323"></rect><rect x="276" y="276" width="12" height="12" fill="#232323"></rect><rect x="288" y="276" width="12" height="12" fill="#232323"></rect><rect x="372" y="276" width="12" height="12" fill="#232323"></rect><rect x="72" y="288" width="12" height="12" fill="#232323"></rect><rect x="96" y="288" width="12" height="12" fill="#232323"></rect><rect x="108" y="288" width="12" height="12" fill="#232323"></rect><rect x="120" y="288" width="12" height="12" fill="#232323"></rect><rect x="192" y="288" width="12" height="12" fill="#232323"></rect><rect x="216" y="288" width="12" height="12" fill="#232323"></rect><rect x="228" y="288" width="12" height="12" fill="#232323"></rect><rect x="264" y="288" width="12" height="12" fill="#232323"></rect><rect x="288" y="288" width="12" height="12" fill="#232323"></rect><rect x="300" y="288" width="12" height="12" fill="#232323"></rect><rect x="312" y="288" width="12" height="12" fill="#232323"></rect><rect x="324" y="288" width="12" height="12" fill="#232323"></rect><rect x="336" y="288" width="12" height="12" fill="#232323"></rect><rect x="360" y="288" width="12" height="12" fill="#232323"></rect><rect x="372" y="288" width="12" height="12" fill="#232323"></rect><rect x="384" y="288" width="12" height="12" fill="#232323"></rect><rect x="144" y="300" width="12" height="12" fill="#232323"></rect><rect x="180" y="300" width="12" height="12" fill="#232323"></rect><rect x="228" y="300" width="12" height="12" fill="#232323"></rect><rect x="252" y="300" width="12" height="12" fill="#232323"></rect><rect x="276" y="300" width="12" height="12" fill="#232323"></rect><rect x="288" y="300" width="12" height="12" fill="#232323"></rect><rect x="336" y="300" width="12" height="12" fill="#232323"></rect><rect x="348" y="300" width="12" height="12" fill="#232323"></rect><rect x="372" y="300" width="12" height="12" fill="#232323"></rect><rect x="384" y="300" width="12" height="12" fill="#232323"></rect><rect x="48" y="312" width="12" height="12" fill="#232323"></rect><rect x="60" y="312" width="12" height="12" fill="#232323"></rect><rect x="72" y="312" width="12" height="12" fill="#232323"></rect><rect x="84" y="312" width="12" height="12" fill="#232323"></rect><rect x="96" y="312" width="12" height="12" fill="#232323"></rect><rect x="108" y="312" width="12" height="12" fill="#232323"></rect><rect x="120" y="312" width="12" height="12" fill="#232323"></rect><rect x="180" y="312" width="12" height="12" fill="#232323"></rect><rect x="192" y="312" width="12" height="12" fill="#232323"></rect><rect x="204" y="312" width="12" height="12" fill="#232323"></rect><rect x="216" y="312" width="12" height="12" fill="#232323"></rect><rect x="228" y="312" width="12" height="12" fill="#232323"></rect><rect x="264" y="312" width="12" height="12" fill="#232323"></rect><rect x="276" y="312" width="12" height="12" fill="#232323"></rect><rect x="288" y="312" width="12" height="12" fill="#232323"></rect><rect x="312" y="312" width="12" height="12" fill="#232323"></rect><rect x="336" y="312" width="12" height="12" fill="#232323"></rect><rect x="348" y="312" width="12" height="12" fill="#232323"></rect><rect x="360" y="312" width="12" height="12" fill="#232323"></rect><rect x="372" y="312" width="12" height="12" fill="#232323"></rect><rect x="48" y="324" width="12" height="12" fill="#232323"></rect><rect x="120" y="324" width="12" height="12" fill="#232323"></rect><rect x="156" y="324" width="12" height="12" fill="#232323"></rect><rect x="168" y="324" width="12" height="12" fill="#232323"></rect><rect x="204" y="324" width="12" height="12" fill="#232323"></rect><rect x="264" y="324" width="12" height="12" fill="#232323"></rect><rect x="288" y="324" width="12" height="12" fill="#232323"></rect><rect x="336" y="324" width="12" height="12" fill="#232323"></rect><rect x="348" y="324" width="12" height="12" fill="#232323"></rect><rect x="360" y="324" width="12" height="12" fill="#232323"></rect><rect x="372" y="324" width="12" height="12" fill="#232323"></rect><rect x="384" y="324" width="12" height="12" fill="#232323"></rect><rect x="48" y="336" width="12" height="12" fill="#232323"></rect><rect x="72" y="336" width="12" height="12" fill="#232323"></rect><rect x="84" y="336" width="12" height="12" fill="#232323"></rect><rect x="96" y="336" width="12" height="12" fill="#232323"></rect><rect x="120" y="336" width="12" height="12" fill="#232323"></rect><rect x="144" y="336" width="12" height="12" fill="#232323"></rect><rect x="156" y="336" width="12" height="12" fill="#232323"></rect><rect x="180" y="336" width="12" height="12" fill="#232323"></rect><rect x="192" y="336" width="12" height="12" fill="#232323"></rect><rect x="204" y="336" width="12" height="12" fill="#232323"></rect><rect x="240" y="336" width="12" height="12" fill="#232323"></rect><rect x="252" y="336" width="12" height="12" fill="#232323"></rect><rect x="276" y="336" width="12" height="12" fill="#232323"></rect><rect x="288" y="336" width="12" height="12" fill="#232323"></rect><rect x="300" y="336" width="12" height="12" fill="#232323"></rect><rect x="312" y="336" width="12" height="12" fill="#232323"></rect><rect x="324" y="336" width="12" height="12" fill="#232323"></rect><rect x="336" y="336" width="12" height="12" fill="#232323"></rect><rect x="348" y="336" width="12" height="12" fill="#232323"></rect><rect x="360" y="336" width="12" height="12" fill="#232323"></rect><rect x="372" y="336" width="12" height="12" fill="#232323"></rect><rect x="48" y="348" width="12" height="12" fill="#232323"></rect><rect x="72" y="348" width="12" height="12" fill="#232323"></rect><rect x="84" y="348" width="12" height="12" fill="#232323"></rect><rect x="96" y="348" width="12" height="12" fill="#232323"></rect><rect x="120" y="348" width="12" height="12" fill="#232323"></rect><rect x="144" y="348" width="12" height="12" fill="#232323"></rect><rect x="168" y="348" width="12" height="12" fill="#232323"></rect><rect x="180" y="348" width="12" height="12" fill="#232323"></rect><rect x="192" y="348" width="12" height="12" fill="#232323"></rect><rect x="252" y="348" width="12" height="12" fill="#232323"></rect><rect x="264" y="348" width="12" height="12" fill="#232323"></rect><rect x="276" y="348" width="12" height="12" fill="#232323"></rect><rect x="288" y="348" width="12" height="12" fill="#232323"></rect><rect x="312" y="348" width="12" height="12" fill="#232323"></rect><rect x="48" y="360" width="12" height="12" fill="#232323"></rect><rect x="72" y="360" width="12" height="12" fill="#232323"></rect><rect x="84" y="360" width="12" height="12" fill="#232323"></rect><rect x="96" y="360" width="12" height="12" fill="#232323"></rect><rect x="120" y="360" width="12" height="12" fill="#232323"></rect><rect x="156" y="360" width="12" height="12" fill="#232323"></rect><rect x="192" y="360" width="12" height="12" fill="#232323"></rect><rect x="216" y="360" width="12" height="12" fill="#232323"></rect><rect x="264" y="360" width="12" height="12" fill="#232323"></rect><rect x="276" y="360" width="12" height="12" fill="#232323"></rect><rect x="288" y="360" width="12" height="12" fill="#232323"></rect><rect x="324" y="360" width="12" height="12" fill="#232323"></rect><rect x="348" y="360" width="12" height="12" fill="#232323"></rect><rect x="372" y="360" width="12" height="12" fill="#232323"></rect><rect x="384" y="360" width="12" height="12" fill="#232323"></rect><rect x="48" y="372" width="12" height="12" fill="#232323"></rect><rect x="120" y="372" width="12" height="12" fill="#232323"></rect><rect x="144" y="372" width="12" height="12" fill="#232323"></rect><rect x="180" y="372" width="12" height="12" fill="#232323"></rect><rect x="204" y="372" width="12" height="12" fill="#232323"></rect><rect x="216" y="372" width="12" height="12" fill="#232323"></rect><rect x="228" y="372" width="12" height="12" fill="#232323"></rect><rect x="240" y="372" width="12" height="12" fill="#232323"></rect><rect x="252" y="372" width="12" height="12" fill="#232323"></rect><rect x="264" y="372" width="12" height="12" fill="#232323"></rect><rect x="276" y="372" width="12" height="12" fill="#232323"></rect><rect x="300" y="372" width="12" height="12" fill="#232323"></rect><rect x="312" y="372" width="12" height="12" fill="#232323"></rect><rect x="324" y="372" width="12" height="12" fill="#232323"></rect><rect x="336" y="372" width="12" height="12" fill="#232323"></rect><rect x="348" y="372" width="12" height="12" fill="#232323"></rect><rect x="48" y="384" width="12" height="12" fill="#232323"></rect><rect x="60" y="384" width="12" height="12" fill="#232323"></rect><rect x="72" y="384" width="12" height="12" fill="#232323"></rect><rect x="84" y="384" width="12" height="12" fill="#232323"></rect><rect x="96" y="384" width="12" height="12" fill="#232323"></rect><rect x="108" y="384" width="12" height="12" fill="#232323"></rect><rect x="120" y="384" width="12" height="12" fill="#232323"></rect><rect x="180" y="384" width="12" height="12" fill="#232323"></rect><rect x="192" y="384" width="12" height="12" fill="#232323"></rect><rect x="216" y="384" width="12" height="12" fill="#232323"></rect><rect x="228" y="384" width="12" height="12" fill="#232323"></rect><rect x="252" y="384" width="12" height="12" fill="#232323"></rect><rect x="276" y="384" width="12" height="12" fill="#232323"></rect><rect x="348" y="384" width="12" height="12" fill="#232323"></rect><rect x="360" y="384" width="12" height="12" fill="#232323"></rect></svg>